<svg width="125" height="87" viewBox="0 0 125 87" fill="none" xmlns="http://www.w3.org/2000/svg">
<path d="M38.1401 35.161C38.1401 32.5989 40.1992 30.5219 42.7391 30.5219C42.7836 30.5219 42.828 30.5225 42.8722 30.5238C42.9679 30.5265 43.063 30.5322 43.1572 30.5408C44.122 30.6285 45.0009 31.0168 45.7011 31.6121C46.7021 32.4631 47.3381 33.7372 47.3381 35.161V56.8563V57.0916C47.3381 58.5155 46.7021 59.7895 45.7011 60.6405C44.901 61.3208 43.8675 61.7307 42.7391 61.7307C40.1992 61.7307 38.1401 59.6537 38.1401 57.0916V35.161Z" fill="#F9F9F9"/>
<path d="M79.9489 35.161C79.9489 33.9944 80.3757 32.9284 81.0805 32.1132C81.6586 31.4446 82.4237 30.9447 83.2936 30.6965C83.452 30.6513 83.6139 30.6145 83.7788 30.5865C84.0289 30.544 84.2858 30.5219 84.5478 30.5219C87.0878 30.5219 89.1468 32.5989 89.1468 35.161V57.0916C89.1468 59.6537 87.0878 61.7307 84.5478 61.7307C83.1644 61.7307 81.9236 61.1145 81.0805 60.1394C80.3757 59.3242 79.9489 58.2582 79.9489 57.0916V56.236V35.161Z" fill="#F9F9F9"/>
<path d="M39.4835 27.1056C38.1774 28.4232 36.0596 28.4232 34.7534 27.1056L32.9796 25.3163C31.6735 23.9987 31.6735 21.8624 32.9796 20.5448C34.2858 19.2272 36.4036 19.2272 37.7098 20.5448L39.4835 22.3341C40.7897 23.6517 40.7897 25.788 39.4835 27.1056ZM39.4835 27.1056L42.8722 30.5238M87.5165 26.8161C86.2103 25.4985 86.2103 23.3623 87.5165 22.0447L89.2902 20.2554C90.5964 18.9378 92.7142 18.9378 94.0204 20.2554C95.3265 21.573 95.3265 23.7092 94.0204 25.0268L92.2466 26.8161C90.9404 28.1337 88.8226 28.1337 87.5165 26.8161ZM87.5165 26.8161L83.7788 30.5865M64.0616 10.2783V16.1827M64.0616 10.2783C62.2143 10.2783 60.7169 8.76775 60.7169 6.90438V4.37393C60.7169 2.51056 62.2143 1 64.0616 1C65.9088 1 67.4062 2.51056 67.4062 4.37393V6.90438C67.4062 8.76775 65.9088 10.2783 64.0616 10.2783ZM43.1572 30.5408V25.461C43.1572 20.3367 47.2752 16.1827 52.3551 16.1827H74.0956C79.1755 16.1827 83.2936 20.3367 83.2936 25.461V30.6965M43.1572 30.5408C43.063 30.5322 42.9679 30.5265 42.8722 30.5238M43.1572 30.5408C44.122 30.6285 45.0009 31.0168 45.7011 31.6121M45.7011 60.6405C46.7021 59.7895 47.3381 58.5155 47.3381 57.0916V56.8563V35.161C47.3381 33.7372 46.7021 32.4631 45.7011 31.6121M45.7011 60.6405C44.901 61.3208 43.8675 61.7307 42.7391 61.7307C40.1992 61.7307 38.1401 59.6537 38.1401 57.0916V35.161C38.1401 32.5989 40.1992 30.5219 42.7391 30.5219C42.7836 30.5219 42.828 30.5225 42.8722 30.5238M45.7011 60.6405C48.2695 64.3586 52.5391 66.7916 57.3722 66.7916H69.0786C74.1255 66.7916 78.5581 64.1385 81.0805 60.1394M83.2936 30.6965C83.452 30.6513 83.6139 30.6145 83.7788 30.5865M83.2936 30.6965C82.4237 30.9447 81.6586 31.4446 81.0805 32.1132M83.7788 30.5865C84.0289 30.544 84.2858 30.5219 84.5478 30.5219C87.0878 30.5219 89.1468 32.5989 89.1468 35.161V57.0916C89.1468 59.6537 87.0878 61.7307 84.5478 61.7307C83.1644 61.7307 81.9236 61.1145 81.0805 60.1394M81.0805 60.1394C80.3757 59.3242 79.9489 58.2582 79.9489 57.0916V56.236V35.161C79.9489 33.9944 80.3757 32.9284 81.0805 32.1132M45.7011 31.6121C48.2695 27.894 52.5391 25.461 57.3722 25.461H69.0786C74.1255 25.461 78.5581 28.1142 81.0805 32.1132M50.6518 65.4936C52.2574 66.415 52.8184 68.475 51.9049 70.0946L50.6644 72.2939C49.7509 73.9135 47.7089 74.4795 46.1033 73.558C44.4978 72.6365 43.9367 70.5766 44.8502 68.957L46.0907 66.7576C47.0042 65.1381 49.0462 64.5721 50.6518 65.4936ZM75.799 65.4936C74.1934 66.415 73.6324 68.475 74.5458 70.0946L75.7863 72.2939C76.6998 73.9135 78.7419 74.4795 80.3474 73.558C81.953 72.6365 82.514 70.5766 81.6006 68.957L80.3601 66.7576C79.4466 65.1381 77.4045 64.5721 75.799 65.4936Z" stroke="#CFCFCF" stroke-width="0.7"/>
<rect x="1" y="37" width="123" height="49" fill="#F9F9F9" stroke="#CFCFCF" stroke-width="0.7"/>
</svg>
