<svg width="65" height="75" viewBox="0 0 65 75" fill="none" xmlns="http://www.w3.org/2000/svg">
<path d="M7.14015 35.0067C7.14015 32.4446 9.19917 30.3676 11.7391 30.3676C11.7836 30.3676 11.828 30.3682 11.8722 30.3695C11.9679 30.3722 12.063 30.3779 12.1572 30.3865C13.122 30.4742 14.0009 30.8625 14.7011 31.4578C15.7021 32.3088 16.3381 33.5829 16.3381 35.0067V56.702V56.9373C16.3381 58.3612 15.7021 59.6352 14.7011 60.4862C13.901 61.1665 12.8675 61.5764 11.7391 61.5764C9.19917 61.5764 7.14015 59.4994 7.14015 56.9373V35.0067Z" fill="#F9F9F9"/>
<path d="M48.9489 35.0067C48.9489 33.8401 49.3757 32.7741 50.0805 31.9589C50.6586 31.2903 51.4237 30.7904 52.2936 30.5422C52.452 30.497 52.6139 30.4602 52.7788 30.4322C53.0289 30.3897 53.2858 30.3676 53.5478 30.3676C56.0878 30.3676 58.1468 32.4446 58.1468 35.0067V56.9373C58.1468 59.4994 56.0878 61.5764 53.5478 61.5764C52.1644 61.5764 50.9236 60.9603 50.0805 59.9851C49.3757 59.1699 48.9489 58.1039 48.9489 56.9373V56.0817V35.0067Z" fill="#F9F9F9"/>
<path d="M8.48355 26.9513C7.17736 28.2689 5.05962 28.2689 3.75343 26.9513L1.97964 25.162C0.673454 23.8444 0.673454 21.7081 1.97964 20.3905C3.28582 19.0729 5.40357 19.0729 6.70975 20.3905L8.48355 22.1798C9.78973 23.4974 9.78973 25.6337 8.48355 26.9513ZM8.48355 26.9513L11.8722 30.3695M56.5165 26.6618C55.2103 25.3442 55.2103 23.208 56.5165 21.8904L58.2902 20.1011C59.5964 18.7835 61.7142 18.7835 63.0204 20.1011C64.3265 21.4187 64.3265 23.5549 63.0204 24.8725L61.2466 26.6618C59.9404 27.9794 57.8226 27.9794 56.5165 26.6618ZM56.5165 26.6618L52.7788 30.4322M33.0616 10.124V16.0284M33.0616 10.124C31.2143 10.124 29.7169 8.61345 29.7169 6.75008V4.21963C29.7169 2.35626 31.2143 0.845703 33.0616 0.845703C34.9088 0.845703 36.4062 2.35626 36.4062 4.21963V6.75008C36.4062 8.61345 34.9088 10.124 33.0616 10.124ZM12.1572 30.3865V25.3067C12.1572 20.1824 16.2752 16.0284 21.3551 16.0284H43.0956C48.1755 16.0284 52.2936 20.1824 52.2936 25.3067V30.5422M12.1572 30.3865C12.063 30.3779 11.9679 30.3722 11.8722 30.3695M12.1572 30.3865C13.122 30.4742 14.0009 30.8625 14.7011 31.4578M14.7011 60.4862C15.7021 59.6352 16.3381 58.3612 16.3381 56.9373V56.702V35.0067C16.3381 33.5829 15.7021 32.3088 14.7011 31.4578M14.7011 60.4862C13.901 61.1665 12.8675 61.5764 11.7391 61.5764C9.19917 61.5764 7.14015 59.4994 7.14015 56.9373V35.0067C7.14015 32.4446 9.19917 30.3676 11.7391 30.3676C11.7836 30.3676 11.828 30.3682 11.8722 30.3695M14.7011 60.4862C17.2695 64.2043 21.5391 66.6373 26.3722 66.6373H38.0786C43.1255 66.6373 47.5581 63.9842 50.0805 59.9851M52.2936 30.5422C52.452 30.497 52.6139 30.4602 52.7788 30.4322M52.2936 30.5422C51.4237 30.7904 50.6586 31.2903 50.0805 31.9589M52.7788 30.4322C53.0289 30.3897 53.2858 30.3676 53.5478 30.3676C56.0878 30.3676 58.1468 32.4446 58.1468 35.0067V56.9373C58.1468 59.4994 56.0878 61.5764 53.5478 61.5764C52.1644 61.5764 50.9236 60.9603 50.0805 59.9851M50.0805 59.9851C49.3757 59.1699 48.9489 58.1039 48.9489 56.9373V56.0817V35.0067C48.9489 33.8401 49.3757 32.7741 50.0805 31.9589M14.7011 31.4578C17.2695 27.7397 21.5391 25.3067 26.3722 25.3067H38.0786C43.1255 25.3067 47.5581 27.9599 50.0805 31.9589M19.6518 65.3393C21.2574 66.2607 21.8184 68.3207 20.9049 69.9403L19.6644 72.1396C18.7509 73.7592 16.7089 74.3252 15.1033 73.4037C13.4978 72.4822 12.9367 70.4223 13.8502 68.8027L15.0907 66.6033C16.0042 64.9838 18.0462 64.4178 19.6518 65.3393ZM44.799 65.3393C43.1934 66.2607 42.6324 68.3207 43.5458 69.9403L44.7863 72.1396C45.6998 73.7592 47.7419 74.3252 49.3474 73.4037C50.953 72.4822 51.514 70.4223 50.6006 68.8027L49.3601 66.6033C48.4466 64.9838 46.4045 64.4178 44.799 65.3393Z" stroke="#CFCFCF" stroke-width="0.7"/>
</svg>
