<svg width="30" height="31" viewBox="0 0 30 31" fill="none" xmlns="http://www.w3.org/2000/svg">
<circle cx="15" cy="15.5147" r="13" fill="#F9F9F9" stroke="#CFCFCF" stroke-width="0.7"/>
<path d="M11.8853 6.72113C15.1302 9.96604 14.7558 15.6015 14.7558 15.6015C14.7558 15.6015 9.12034 15.9759 5.87543 12.731C2.63052 9.48605 3.00491 3.85061 3.00491 3.85061C3.00491 3.85061 8.64035 3.47622 11.8853 6.72113Z" fill="#F9F9F9" stroke="#CFCFCF" stroke-width="0.7"/>
<path d="M11.8853 24.9699C15.1302 21.725 14.7558 16.0896 14.7558 16.0896C14.7558 16.0896 9.12034 15.7152 5.87543 18.9601C2.63052 22.205 3.00491 27.8404 3.00491 27.8404C3.00491 27.8404 8.64035 28.2148 11.8853 24.9699Z" fill="#F9F9F9" stroke="#CFCFCF" stroke-width="0.7"/>
<path d="M18.1147 6.72113C14.8698 9.96604 15.2442 15.6015 15.2442 15.6015C15.2442 15.6015 20.8797 15.9759 24.1246 12.731C27.3695 9.48605 26.9951 3.85061 26.9951 3.85061C26.9951 3.85061 21.3597 3.47622 18.1147 6.72113Z" fill="#F9F9F9" stroke="#CFCFCF" stroke-width="0.7"/>
<path d="M18 8.51471C18 12.3807 15 15.5147 15 15.5147C15 15.5147 12 12.3807 12 8.51471C12 4.64872 15 1.51471 15 1.51471C15 1.51471 18 4.64872 18 8.51471Z" fill="#F9F9F9" stroke="#CFCFCF" stroke-width="0.7"/>
<path d="M18.1147 24.9699C14.8698 21.725 15.2442 16.0896 15.2442 16.0896C15.2442 16.0896 20.8797 15.7152 24.1246 18.9601C27.3695 22.205 26.9951 27.8404 26.9951 27.8404C26.9951 27.8404 21.3597 28.2148 18.1147 24.9699Z" fill="#F9F9F9" stroke="#CFCFCF" stroke-width="0.7"/>
<path d="M18 22.0147C18 25.6046 15 28.5147 15 28.5147C15 28.5147 12 25.6046 12 22.0147C12 18.4249 15 15.5147 15 15.5147C15 15.5147 18 18.4249 18 22.0147Z" fill="#F9F9F9" stroke="#CFCFCF" stroke-width="0.7"/>
<path d="M22 18.5147C18.134 18.5147 15 15.5147 15 15.5147C15 15.5147 18.134 12.5147 22 12.5147C25.866 12.5147 29 15.5147 29 15.5147C29 15.5147 25.866 18.5147 22 18.5147Z" fill="#F9F9F9" stroke="#CFCFCF" stroke-width="0.7"/>
<path d="M8 18.5147C4.13401 18.5147 1 15.5147 1 15.5147C1 15.5147 4.13401 12.5147 8 12.5147C11.866 12.5147 15 15.5147 15 15.5147C15 15.5147 11.866 18.5147 8 18.5147Z" fill="#F9F9F9" stroke="#CFCFCF" stroke-width="0.7"/>
</svg>
