<svg width="150" height="7" viewBox="0 0 150 7" fill="none" xmlns="http://www.w3.org/2000/svg">
<path d="M1 2.75L3.45361 3.35558C5.16391 3.77769 6.95537 3.74052 8.64669 3.24781L15.1373 1.357C20.3032 -0.147919 25.8604 0.533672 30.5096 3.24241L31.8099 4C37.1138 7.09021 43.6695 7.09021 48.9734 4V4C54.2773 0.909792 60.833 0.909792 66.1369 4V4C71.4408 7.09021 77.9965 7.09021 83.3004 4V4C88.6043 0.909792 95.16 0.909791 100.464 4V4C105.768 7.09021 112.323 7.09021 117.627 4L118.375 3.56458C123.318 0.684648 129.314 0.249105 134.621 2.38446L137.489 3.53855C139.825 4.47813 142.428 4.50245 144.781 3.60669L149 2" stroke="#CFCFCF" stroke-width="0.7"/>
</svg>
