<svg width="66" height="66" viewBox="0 0 66 66" fill="none" xmlns="http://www.w3.org/2000/svg">
<rect x="1" y="1" width="64" height="64" stroke="#CFCFCF" stroke-width="0.7"/>
<path d="M20 46C25.8382 46 27.424 39.3701 27.4452 34.6321C24.1536 34.0518 21.6545 31.2046 21.6545 27.7795V20L35.7182 20V27.7795C35.7182 31.2046 33.2191 34.0518 29.9275 34.6321C29.9463 39.3701 31.356 46 36.5455 46" stroke="#CFCFCF" stroke-width="0.7" stroke-linecap="round"/>
<path d="M42 20V28.6667M45.5 20V28.7683C45.5 29.8884 45.5 30.4484 45.282 30.8762C45.0903 31.2526 44.7843 31.5585 44.408 31.7503C43.9802 31.9683 43.4201 31.9683 42.3 31.9683H42L42 46M38.5 20V28.6667" stroke="#CFCFCF" stroke-width="0.7" stroke-linecap="round"/>
</svg>
