<svg width="66" height="66" viewBox="0 0 66 66" fill="none" xmlns="http://www.w3.org/2000/svg">
<path d="M1 0.845703H65V64.8457H1V0.845703Z" stroke="#CFCFCF" stroke-width="0.7"/>
<path d="M43 32.8457H36.75M36.75 32.8457H33M36.75 32.8457L41.75 27.8457M36.75 32.8457L41.75 37.8457M33 22.8457V29.0957M33 29.0957L28 24.0957M33 29.0957L38 24.0957M33 29.0957V36.5957M23 32.8457H29.25M29.25 32.8457H33M29.25 32.8457L24.25 27.8457M29.25 32.8457L24.25 37.8457M33 42.8457V36.5957M33 36.5957L28 41.5957M33 36.5957L38 41.5957" stroke="#CFCFCF" stroke-width="0.7" stroke-linecap="round"/>
</svg>
