<svg width="142" height="142" viewBox="0 0 142 142" fill="none" xmlns="http://www.w3.org/2000/svg">
<path d="M53.2466 6.54565C67.1367 3.13447 75.1288 3.09219 89.7534 6.54565M53.2466 6.54565L51 37.7057C51 38.3353 51.5161 38.8457 52.1528 38.8457H90.8472C91.4839 38.8457 92 38.3353 92 37.7057L89.7534 6.54565M53.2466 6.54565V4.31148C53.2466 3.78771 53.6113 3.32991 54.1261 3.20662C67.2007 0.0754809 75.1048 0.04015 88.8633 3.21222C89.3829 3.33201 89.7534 3.79219 89.7534 4.31979V6.54565" stroke="#CFCFCF" stroke-width="0.7"/>
<path d="M53.2466 135.146C67.1367 138.557 75.1288 138.599 89.7534 135.146M53.2466 135.146L51 103.986C51 103.356 51.5161 102.846 52.1528 102.846H90.8472C91.4839 102.846 92 103.356 92 103.986L89.7534 135.146M53.2466 135.146V137.38C53.2466 137.904 53.6113 138.362 54.1261 138.485C67.2007 141.616 75.1048 141.651 88.8633 138.479C89.3829 138.359 89.7534 137.899 89.7534 137.372V135.146" stroke="#CFCFCF" stroke-width="0.7"/>
<path d="M6.69995 53.0923C3.28876 66.9824 3.24649 74.9746 6.69995 89.5991M6.69995 53.0923L37.86 50.8457C38.4896 50.8457 39 51.3619 39 51.9986V90.6929C39 91.3296 38.4896 91.8457 37.86 91.8457L6.69995 89.5991M6.69995 53.0923H4.46578C3.94201 53.0923 3.4842 53.457 3.36092 53.9718C0.229778 67.0464 0.194447 74.9505 3.36651 88.709C3.48631 89.2286 3.94648 89.5991 4.47409 89.5991H6.69995" stroke="#CFCFCF" stroke-width="0.7"/>
<path d="M135.3 53.0923C138.711 66.9824 138.754 74.9746 135.3 89.5991M135.3 53.0923L104.14 50.8457C103.51 50.8457 103 51.3619 103 51.9986V90.6929C103 91.3296 103.51 91.8457 104.14 91.8457L135.3 89.5991M135.3 53.0923H137.534C138.058 53.0923 138.516 53.457 138.639 53.9718C141.77 67.0464 141.806 74.9505 138.633 88.709C138.514 89.2286 138.054 89.5991 137.526 89.5991H135.3" stroke="#CFCFCF" stroke-width="0.7"/>
<circle cx="71" cy="70.8457" r="51" fill="#F9F9F9" stroke="#CFCFCF" stroke-width="0.7"/>
</svg>
