<svg width="67" height="56" viewBox="0 0 67 56" fill="none" xmlns="http://www.w3.org/2000/svg">
<path d="M8 6.33333C8 3.38781 10.296 1 13.1282 1H52.8718C55.704 1 58 3.38781 58 6.33333C58 12.2244 53.4081 17 47.7436 17H18.2564C12.592 17 8 12.2244 8 6.33333Z" fill="#F9F9F9" stroke="#CFCFCF" stroke-width="0.7"/>
<path d="M8 48.5593C8 52.1164 10.87 55 14.4103 55H51.5897C55.13 55 58 52.1164 58 48.5593V26.661C58 21.3254 53.695 17 48.3846 17H17.6154C12.305 17 8 21.3254 8 26.661V48.5593Z" fill="#F9F9F9" stroke="#CFCFCF" stroke-width="0.7"/>
<path d="M1.19668 33.8853C0.377579 36.8998 2.19169 39.9983 5.24861 40.8061C8.30552 41.6138 11.4477 39.8249 12.2668 36.8104L16.8033 20.1147C17.6224 17.1002 15.8083 14.0017 12.7514 13.1939C9.69448 12.3862 6.55234 14.1751 5.73325 17.1896L1.19668 33.8853Z" fill="#F9F9F9" stroke="#CFCFCF" stroke-width="0.7"/>
<path d="M65.8033 33.8853C66.6224 36.8998 64.8083 39.9983 61.7514 40.8061C58.6945 41.6138 55.5523 39.8249 54.7332 36.8104L50.1967 20.1147C49.3776 17.1002 51.1917 14.0017 54.2486 13.1939C57.3055 12.3862 60.4477 14.1751 61.2668 17.1896L65.8033 33.8853Z" fill="#F9F9F9" stroke="#CFCFCF" stroke-width="0.7"/>
</svg>
