<svg width="65" height="60" viewBox="0 0 65 60" fill="none" xmlns="http://www.w3.org/2000/svg">
<path d="M4.9375 50.4853V35.8547C4.9375 27.0755 4.9375 22.6859 6.54686 19.3327C7.96249 16.3831 10.2213 13.9851 12.9997 12.4822C16.1582 10.7736 20.293 10.7736 28.5625 10.7736H36.4375C44.707 10.7736 48.8418 10.7736 52.0003 12.4822C54.7787 13.9851 57.0375 16.3831 58.4531 19.3327C60.0625 22.6859 60.0625 27.0755 60.0625 35.8547V50.4853M4.9375 50.4853C4.9375 53.4117 4.9375 54.8749 5.47395 55.9927C5.94583 56.9759 6.69878 57.7752 7.62489 58.2762C8.67774 58.8457 10.056 58.8457 12.8125 58.8457H52.1875C54.944 58.8457 56.3223 58.8457 57.3751 58.2762C58.3012 57.7752 59.0542 56.9759 59.526 55.9927C60.0625 54.8749 60.0625 53.4117 60.0625 50.4853M4.9375 50.4853V30.107C4.9375 21.3278 4.9375 16.9382 6.54686 13.585C7.96249 10.6354 10.2213 8.23731 12.9997 6.73443C16.1582 5.02588 20.293 5.02588 28.5625 5.02588H36.4375C44.707 5.02588 48.8418 5.02588 52.0003 6.73443C54.7787 8.23731 57.0375 10.6354 58.4531 13.585C60.0625 16.9382 60.0625 21.3278 60.0625 30.107V50.4853M64 34.2871C64 22.5815 64 16.7287 61.8542 12.2578C59.9667 8.32504 56.9549 5.1276 53.2504 3.12377C49.0391 0.845703 43.526 0.845703 32.5 0.845703C21.474 0.845703 15.9609 0.845703 11.7496 3.12377C8.04512 5.1276 5.03332 8.32504 3.14581 12.2578C1 16.7287 1 22.5815 1 34.2871M4.9375 29.0619V47.8727C4.9375 49.0271 4.05606 49.9628 2.96875 49.9628C1.88144 49.9628 1 49.0271 1 47.8727V29.0619M64 29.0619V47.8727C64 49.0271 63.1186 49.9628 62.0312 49.9628C60.9439 49.9628 60.0625 49.0271 60.0625 47.8727V29.0619" stroke="#CFCFCF" stroke-width="0.7"/>
</svg>
