<svg width="109" height="111" viewBox="0 0 109 111" fill="none" xmlns="http://www.w3.org/2000/svg">
<path d="M86.5474 100.707C95.565 94.339 102.224 85.4477 105.576 75.2994C108.927 65.151 108.801 54.2631 105.214 44.1865C101.628 34.1099 94.7641 25.3585 85.6009 19.179C76.4377 12.9995 65.4423 9.70691 54.1809 9.77031C42.9195 9.83371 31.9665 13.2498 22.882 19.5321C13.7976 25.8144 7.04494 34.6424 3.58602 44.7587C0.1271 54.8749 0.138292 65.7635 3.618 75.8734C7.09771 85.9833 13.8685 94.7989 22.9658 101.065L24.2402 99.416C15.5104 93.4035 9.01329 84.9442 5.6742 75.2428C2.33511 65.5415 2.32437 55.0929 5.64351 45.3855C8.96266 35.678 15.4424 27.2068 24.1598 21.1784C32.8771 15.15 43.3875 11.8719 54.1938 11.811C65.0001 11.7502 75.5512 14.9097 84.3441 20.8395C93.137 26.7693 99.7233 35.167 103.165 44.8364C106.607 54.5058 106.728 64.9537 103.512 74.692C100.295 84.4303 93.9055 92.9622 85.2524 99.0725L86.5474 100.707Z" stroke="#BCBCBC" stroke-width="0.7"/>
<path d="M96.7304 59.036C96.7304 65.5155 96.0137 70.5799 94.7304 75.036C89.3685 93.6549 74.2241 96.036 55.7304 96.036C37.2367 96.036 21.0923 93.6549 15.7304 75.036C14.4471 70.5799 13.7304 65.5155 13.7304 59.036C13.7304 38.3253 32.8106 21.036 55.7304 21.036C78.6502 21.036 96.7304 38.3253 96.7304 59.036Z" fill="#F9F9F9"/>
<path d="M15.7304 75.036C21.0923 93.6549 37.2367 96.036 55.7304 96.036C74.2241 96.036 89.3685 93.6549 94.7304 75.036M15.7304 75.036C14.4471 70.5799 13.7304 65.5155 13.7304 59.036C13.7304 38.3253 32.8106 21.036 55.7304 21.036C78.6502 21.036 96.7304 38.3253 96.7304 59.036C96.7304 65.5155 96.0137 70.5799 94.7304 75.036M15.7304 75.036C15.7304 70.8905 18.1212 66.8172 21.7304 64.036M94.7304 75.036C94.8629 70.8905 93.2507 66.8172 89.7304 64.036M21.7304 64.036C36.4456 52.6967 75.3777 52.6967 89.7304 64.036M21.7304 64.036C21.7304 91.6676 89.7304 92.6544 89.7304 64.036" stroke="#BCBCBC" stroke-width="0.7"/>
<rect x="53.2217" y="1" width="2" height="61" fill="#F9F9F9" stroke="#BCBCBC" stroke-width="0.7"/>
</svg>
