<svg width="134" height="217" viewBox="0 0 134 217" fill="none" xmlns="http://www.w3.org/2000/svg">
<path d="M23 85H62M23 85C20.2386 85 18 82.7614 18 80M23 85C20.2386 85 18 87.2386 18 90M18 80V23M18 80C18 82.7614 15.7614 85 13 85M67 80V23M67 80C67 82.7614 64.7614 85 62 85M67 80C67 82.7614 69.2386 85 72 85H128C130.761 85 133 82.7614 133 80V23C133 20.2386 130.761 18 128 18H72C69.2386 18 67 20.2386 67 23M62 85C64.7614 85 67 87.2386 67 90V145C67 147.761 64.7614 150 62 150M67 23C67 20.2386 64.7614 18 62 18H23C20.2386 18 18 20.2386 18 23M18 23C18 20.2386 15.7614 18 13 18H6M6 18H61C63.7614 18 66 15.7614 66 13V6C66 3.23858 63.7614 1 61 1H6C3.23858 1 1 3.23858 1 6V13C1 15.7614 3.23858 18 6 18ZM6 18C3.23858 18 1 20.2386 1 23V80C1 82.7614 3.23858 85 6 85M6 85H13M6 85C3.23858 85 1 87.2386 1 90V145C1 147.761 3.23858 150 6 150M13 85C15.7614 85 18 87.2386 18 90M23 150H62M23 150C20.2386 150 18 147.761 18 145M23 150C20.2386 150 18 152.239 18 155M18 145V90M18 145C18 147.761 15.7614 150 13 150M62 150C64.7614 150 67 152.239 67 155V211C67 213.761 64.7614 216 62 216H23C20.2386 216 18 213.761 18 211M6 150H13M6 150C3.23858 150 1 152.239 1 155V211C1 213.761 3.23858 216 6 216H13C15.7614 216 18 213.761 18 211M13 150C15.7614 150 18 152.239 18 155M18 211V155" stroke="black"/>
</svg>
