<svg width="36" height="45" viewBox="0 0 36 45" fill="none" xmlns="http://www.w3.org/2000/svg">
<path d="M17.3078 21.9048C13.8209 21.9048 10.9745 19.813 10.8068 17.1845C10.8016 17.1032 10.799 17.0213 10.799 16.9391C10.799 14.1965 13.7131 11.9733 17.3078 11.9733C20.9025 11.9733 23.8166 14.1965 23.8166 16.9391C23.8166 17.0213 23.814 17.1031 23.8088 17.1844C23.6412 19.813 20.7947 21.9048 17.3078 21.9048Z" fill="#F9F9F9"/>
<path d="M17.3078 15.9459C16.4842 15.9459 15.7534 15.6303 15.2972 15.1432C14.9876 14.8126 14.8044 14.4031 14.8044 13.9596C14.8044 12.8626 15.9252 11.9733 17.3078 11.9733C18.6904 11.9733 19.8112 12.8626 19.8112 13.9596C19.8112 14.4031 19.628 14.8126 19.3184 15.1432C18.8622 15.6303 18.1314 15.9459 17.3078 15.9459Z" fill="#F9F9F9"/>
<path d="M27.8221 11.4767C27.8221 14.1475 26.8097 16.5838 25.1448 18.4288C23.2196 20.5622 20.4218 21.9048 17.3078 21.9048C13.9946 21.9048 11.0393 20.3849 9.11209 18.0097C7.66163 16.222 6.79355 13.9499 6.79355 11.4767C6.79355 10.4078 6.95571 9.37638 7.25697 8.40545C6.20462 8.44811 5.23817 8.06978 4.66146 7.28339C3.62685 5.8726 4.23837 3.68273 6.02734 2.39218C7.81631 1.10163 10.1053 1.1991 11.1399 2.60989C11.2086 2.70356 11.27 2.80066 11.3243 2.90071C13.0227 1.73289 15.0847 1.04858 17.3078 1.04858C19.2939 1.04858 21.1514 1.59476 22.7359 2.54394C23.7928 1.19636 26.0378 1.12204 27.7985 2.39218C29.5874 3.68273 30.1989 5.8726 29.1643 7.28339C28.733 7.87148 28.0838 8.23136 27.3437 8.35762C27.6545 9.34249 27.8221 10.3902 27.8221 11.4767Z" fill="#F9F9F9"/>
<path d="M1.54777 33.3744C2.89042 34.2228 5.45275 32.7286 7.83442 29.9102C8.35404 30.9773 9.05156 31.9433 9.88879 32.7702C11.2043 34.0695 12.8648 35.0255 14.7221 35.4913C15.5493 35.6988 16.4156 35.809 17.3078 35.809C18.5631 35.809 19.767 35.5908 20.883 35.1906C22.516 34.6051 23.9611 33.6298 25.1039 32.3781C25.8934 31.5133 26.5386 30.5166 27.002 29.4254C29.3525 31.6234 31.8237 32.5959 33.071 31.6303C34.6444 30.4124 33.6747 26.5721 30.9052 23.0527C29.1381 20.8071 27.0651 19.2347 25.3873 18.7072C25.3081 18.613 25.2273 18.5201 25.1448 18.4288C23.2196 20.5622 20.4218 21.9048 17.3078 21.9048C13.9946 21.9048 11.0393 20.3849 9.11209 18.0097C7.37816 18.8557 5.26265 20.9205 3.49369 23.6744C0.735713 27.9679 -0.135504 32.3108 1.54777 33.3744Z" fill="#F9F9F9"/>
<path d="M10.6099 42.7614C11.6055 41.911 12.593 40.6691 13.3919 39.1694C14.0653 37.9054 14.5106 36.6348 14.7221 35.4913C12.8648 35.0255 11.2043 34.0695 9.88879 32.7702C9.01093 33.601 8.15562 34.7269 7.4482 36.0548C7.36192 36.2168 7.27939 36.3788 7.20062 36.5407C5.2304 35.9811 3.26766 36.5357 2.48464 38.0056C1.54619 39.7672 2.65765 42.1764 4.96716 43.3866C7.10388 44.5063 9.51749 44.2075 10.6099 42.7614Z" fill="#F9F9F9"/>
<path d="M22.7762 39.5903C23.7412 41.0856 24.8717 42.3 25.9683 43.1059C27.1207 44.4305 29.5368 44.6334 31.7101 43.4946C34.1336 42.2246 35.3374 39.767 34.399 38.0054C33.5408 36.3944 31.1883 35.9233 28.9388 36.8257C28.7831 36.5491 28.6161 36.272 28.438 35.996C27.4313 34.436 26.2444 33.1818 25.1039 32.3781C23.9611 33.6298 22.516 34.6051 20.883 35.1906C21.1558 36.5278 21.7984 38.0752 22.7762 39.5903Z" fill="#F9F9F9"/>
<path d="M17.3078 21.9048C20.7947 21.9048 23.6412 19.813 23.8088 17.1844C23.814 17.1031 23.8166 17.0213 23.8166 16.9391C23.8166 14.1965 20.9025 11.9733 17.3078 11.9733M17.3078 21.9048C13.8209 21.9048 10.9745 19.813 10.8068 17.1845C10.8016 17.1032 10.799 17.0213 10.799 16.9391C10.799 14.1965 13.7131 11.9733 17.3078 11.9733M17.3078 21.9048C13.9946 21.9048 11.0393 20.3849 9.11209 18.0097M17.3078 21.9048C20.4218 21.9048 23.2196 20.5622 25.1448 18.4288M17.3078 11.9733C15.9252 11.9733 14.8044 12.8626 14.8044 13.9596C14.8044 14.4031 14.9876 14.8126 15.2972 15.1432C15.7534 15.6303 16.4842 15.9459 17.3078 15.9459C18.1314 15.9459 18.8622 15.6303 19.3184 15.1432C19.628 14.8126 19.8112 14.4031 19.8112 13.9596C19.8112 12.8626 18.6904 11.9733 17.3078 11.9733ZM9.11209 18.0097C7.37816 18.8557 5.26265 20.9205 3.49369 23.6744C0.735713 27.9679 -0.135504 32.3108 1.54777 33.3744C2.89042 34.2228 5.45275 32.7286 7.83442 29.9102C8.35404 30.9773 9.05156 31.9433 9.88879 32.7702M9.11209 18.0097C7.66163 16.222 6.79355 13.9499 6.79355 11.4767C6.79355 10.4078 6.95571 9.37638 7.25697 8.40545C6.20462 8.44811 5.23817 8.06978 4.66146 7.28339C3.62685 5.8726 4.23837 3.68273 6.02734 2.39218C7.81631 1.10163 10.1053 1.1991 11.1399 2.60989C11.2086 2.70356 11.27 2.80066 11.3243 2.90071C13.0227 1.73289 15.0847 1.04858 17.3078 1.04858C19.2939 1.04858 21.1514 1.59476 22.7359 2.54394C23.7928 1.19636 26.0378 1.12204 27.7985 2.39218C29.5874 3.68273 30.1989 5.8726 29.1643 7.28339C28.733 7.87148 28.0838 8.23136 27.3437 8.35762C27.6545 9.34249 27.8221 10.3902 27.8221 11.4767C27.8221 14.1475 26.8097 16.5838 25.1448 18.4288M25.1448 18.4288C25.2273 18.5201 25.3081 18.613 25.3873 18.7072C27.0651 19.2347 29.1381 20.8071 30.9052 23.0527C33.6747 26.5721 34.6444 30.4124 33.071 31.6303C31.8237 32.5959 29.3525 31.6234 27.002 29.4254C26.5386 30.5166 25.8934 31.5133 25.1039 32.3781M9.88879 32.7702C9.01093 33.601 8.15562 34.7269 7.4482 36.0548C7.36192 36.2168 7.27939 36.3788 7.20062 36.5407C5.2304 35.9811 3.26766 36.5357 2.48464 38.0056C1.54619 39.7672 2.65765 42.1764 4.96716 43.3866C7.10388 44.5063 9.51749 44.2075 10.6099 42.7614C11.6055 41.911 12.593 40.6691 13.3919 39.1694C14.0653 37.9054 14.5106 36.6348 14.7221 35.4913M9.88879 32.7702C11.2043 34.0695 12.8648 35.0255 14.7221 35.4913M14.7221 35.4913C15.5493 35.6988 16.4156 35.809 17.3078 35.809C18.5631 35.809 19.767 35.5908 20.883 35.1906M25.1039 32.3781C26.2444 33.1818 27.4313 34.436 28.438 35.996C28.6161 36.272 28.7831 36.5491 28.9388 36.8257C31.1883 35.9233 33.5408 36.3944 34.399 38.0054C35.3374 39.767 34.1336 42.2246 31.7101 43.4946C29.5368 44.6334 27.1207 44.4305 25.9683 43.1059C24.8717 42.3 23.7412 41.0856 22.7762 39.5903C21.7984 38.0752 21.1558 36.5278 20.883 35.1906M25.1039 32.3781C23.9611 33.6298 22.516 34.6051 20.883 35.1906" stroke="#CFCFCF" stroke-width="0.7"/>
</svg>
