<svg width="143" height="182" viewBox="0 0 143 182" fill="none" xmlns="http://www.w3.org/2000/svg">
<path d="M6.00001 181C3.23859 181 1.00001 178.761 1.00001 176L1 6.00001C1 3.23858 3.23858 1.00001 6 1.00001L137 1C139.761 1 142 3.23858 142 6V176C142 178.761 139.761 181 137 181H6.00001Z" stroke="#CFCFCF" stroke-width="0.7"/>
<path d="M19 46C16.2386 46 14 43.7614 14 41L14 14C14 11.2386 16.2386 9 19 9L62 9C64.7614 9 67 11.2386 67 14V41C67 43.7614 64.7614 46 62 46H19Z" stroke="#CFCFCF" stroke-width="0.7"/>
<path d="M81 46C78.2386 46 76 43.7614 76 41L76 14C76 11.2386 78.2386 9 81 9L124 9C126.761 9 129 11.2386 129 14V41C129 43.7614 126.761 46 124 46H81Z" stroke="#CFCFCF" stroke-width="0.7"/>
</svg>
