<svg width="81" height="168" viewBox="0 0 81 168" fill="none" xmlns="http://www.w3.org/2000/svg">
<path d="M6.00013 166.846C3.23871 166.846 1.00013 164.607 1.00013 161.846L1.00012 5.84571C1.00012 3.08428 3.2387 0.845706 6.00012 0.845706L75.0001 0.845703C77.7616 0.845703 80.0001 3.08428 80.0001 5.8457L80.0001 161.846C80.0001 164.607 77.7616 166.846 75.0001 166.846H6.00013Z" stroke="#CFCFCF" stroke-width="0.7"/>
<path d="M19.0001 45.8457C16.2387 45.8457 14.0001 43.6071 14.0001 40.8457L14.0001 13.8457C14.0001 11.0843 16.2387 8.84571 19.0001 8.84571L62.0001 8.8457C64.7615 8.8457 67.0001 11.0843 67.0001 13.8457V40.8457C67.0001 43.6071 64.7615 45.8457 62.0001 45.8457H19.0001Z" stroke="#CFCFCF" stroke-width="0.7"/>
</svg>
