<svg width="50" height="50" viewBox="0 0 50 50" fill="none" xmlns="http://www.w3.org/2000/svg">
<path d="M41 0.845703H9C6.19974 0.845703 4.79961 0.845703 3.73005 1.39067C2.78924 1.87004 2.02433 2.63494 1.54497 3.57575C1 4.64531 1 6.04544 1 8.8457V40.8457C1 43.646 1 45.0461 1.54497 46.1157C2.02433 47.0565 2.78924 47.8214 3.73005 48.3007C4.79961 48.8457 6.19974 48.8457 9 48.8457H41C43.8003 48.8457 45.2004 48.8457 46.27 48.3007C47.2108 47.8214 47.9757 47.0565 48.455 46.1157C49 45.0461 49 43.646 49 40.8457V8.8457C49 6.04544 49 4.64531 48.455 3.57575C47.9757 2.63494 47.2108 1.87004 46.27 1.39067C45.2004 0.845703 43.8003 0.845703 41 0.845703Z" stroke="#CFCFCF" stroke-width="0.7"/>
<path d="M10 35L12.5 37.5M12.5 37.5L15 40M12.5 37.5L15 35M12.5 37.5L10 40" stroke="#CFCFCF" stroke-width="0.7" stroke-linecap="round"/>
<path d="M10 9L12.5 11.5M12.5 11.5L15 14M12.5 11.5L15 9M12.5 11.5L10 14" stroke="#CFCFCF" stroke-width="0.7" stroke-linecap="round"/>
<path d="M35 9L37.5 11.5M37.5 11.5L40 14M37.5 11.5L40 9M37.5 11.5L35 14" stroke="#CFCFCF" stroke-width="0.7" stroke-linecap="round"/>
<path d="M35 35L37.5 37.5M37.5 37.5L40 40M37.5 37.5L40 35M37.5 37.5L35 40" stroke="#CFCFCF" stroke-width="0.7" stroke-linecap="round"/>
</svg>
