<svg width="93" height="50" viewBox="0 0 93 50" fill="none" xmlns="http://www.w3.org/2000/svg">
<path d="M18 34L20.5 36.5M20.5 36.5L23 39M20.5 36.5L23 34M20.5 36.5L18 39" stroke="#CFCFCF" stroke-width="0.7" stroke-linecap="round"/>
<path d="M71 34L73.5 36.5M73.5 36.5L76 39M73.5 36.5L76 34M73.5 36.5L71 39" stroke="#CFCFCF" stroke-width="0.7" stroke-linecap="round"/>
<path d="M18 10L20.5 12.5M20.5 12.5L23 15M20.5 12.5L23 10M20.5 12.5L18 15" stroke="#CFCFCF" stroke-width="0.7" stroke-linecap="round"/>
<path d="M71 10L73.5 12.5M73.5 12.5L76 15M73.5 12.5L76 10M73.5 12.5L71 15" stroke="#CFCFCF" stroke-width="0.7" stroke-linecap="round"/>
<path d="M1 8.8457C1 6.04544 1 4.64531 1.54497 3.57575C2.02433 2.63494 2.78924 1.87004 3.73005 1.39067C4.79961 0.845703 6.19974 0.845703 9 0.845703H84C86.8003 0.845703 88.2004 0.845703 89.27 1.39067C90.2108 1.87004 90.9757 2.63494 91.455 3.57575C92 4.64531 92 6.04544 92 8.8457V40.8457C92 43.646 92 45.0461 91.455 46.1157C90.9757 47.0565 90.2108 47.8214 89.27 48.3007C88.2004 48.8457 86.8003 48.8457 84 48.8457H9C6.19974 48.8457 4.79961 48.8457 3.73005 48.3007C2.78924 47.8214 2.02433 47.0565 1.54497 46.1157C1 45.0461 1 43.646 1 40.8457V8.8457Z" stroke="#CFCFCF" stroke-width="0.7"/>
</svg>
